<svg id="Layer_1" data-name="Layer 1" xmlns="http://www.w3.org/2000/svg" viewBox="0 0 30.4 13"><defs><style>.cls-1{fill:#ec1c24;}.cls-2{fill:#dd5a2b;}.cls-3{fill:#e1932a;}.cls-4{fill:#016938;}.cls-5{fill:#00a54f;}.cls-6{font-size:4.2px;fill:#231f20;font-family:ErasITC-Medium, Eras Medium ITC;font-weight:500;}</style></defs><title>1</title><path class="cls-1" d="M47.24,2.59,40.24,1h0a3.2,3.2,0,0,0,2.21,1.77l4.07,1Z" transform="translate(-37.02 -1)"/><path class="cls-2" d="M46.26,4.14,41,2.94h0a3.19,3.19,0,0,0,2.2,1.76l2.35.57Z" transform="translate(-37.02 -1)"/><path class="cls-3" d="M45.29,5.68l-3.54-.83,0,.05a3.2,3.2,0,0,0,2.12,1.74l.69.19Z" transform="translate(-37.02 -1)"/><path class="cls-1" d="M58.12,2.59l7-1.59h0A3.24,3.24,0,0,1,62.9,2.77l-4.06,1Z" transform="translate(-37.02 -1)"/><path class="cls-2" d="M59.09,4.14l5.27-1.2h0a3.21,3.21,0,0,1-2.2,1.76l-2.35.57Z" transform="translate(-37.02 -1)"/><path class="cls-4" d="M66.54,8.11c-.12-.32.93-1.23.88-1.43s-2.54.39-3.87.27-4.73-1.52-8.73-2c-3.43-.38-9.14,1.81-10.76,2.44-.4,0-.79.06-1.17.1C37.64,8.18,37.13,10,37.13,10c2-1.55,3.45-1.76,6.49-2s6.64.48,9.54.77A7.66,7.66,0,0,0,58.62,7.3a13.26,13.26,0,0,1-5.81.76A53.6,53.6,0,0,0,46,7.4a33.79,33.79,0,0,1,6.93-1.88c3-.3,5.58.83,10.41,2.2s3.17,3,3.12,3.05.9-1,.7-1.66S66.67,8.43,66.54,8.11Z" transform="translate(-37.02 -1)"/><path class="cls-3" d="M62.21,6.34A3.15,3.15,0,0,0,63.59,4.9l0-.05-3.55.83,0,.07Z" transform="translate(-37.02 -1)"/><path class="cls-5" d="M58.18,5.25,57,3.29H48.33L46.49,6.21l.3-.1L48.4,3.55h8.46l1,1.64Z" transform="translate(-37.02 -1)"/><path class="cls-5" d="M48.21,3.11h8.86l0,0,1.36,2.17.85.21L57.46,2.6H47.8L45.26,6.65l.94-.33Z" transform="translate(-37.02 -1)"/><text class="cls-6" transform="translate(0 11.95) scale(1.09 1)"><tspan xml:space="preserve">WAND   RIDES</tspan></text><rect class="cls-1" x="14.98" y="10.39" width="2.42" height="0.35"/><rect class="cls-1" x="2.38" y="8.28" width="24.21" height="0.37"/><rect class="cls-1" x="2.41" y="12.32" width="24.21" height="0.37"/><rect class="cls-1" x="14.88" y="8.54" width="0.44" height="4.06"/></svg>